<svg xmlns="http://www.w3.org/2000/svg" viewBox="0 0 35 35" id="Rust--Streamline-Font-Awesome" height="35" width="35">
  <desc>
    Rust Streamline Icon: https://streamlinehq.com
  </desc>
<!--! Font Awesome Free 6.5.2 by @fontawesome - https://fontawesome.com License - https://fontawesome.com/license/free (Icons: CC BY 4.0, Fonts: SIL OFL 1.1, Code: MIT License) Copyright 2024 Fonticons, Inc.-->
  <path d="m34.762109375 17.07275390625 -1.4916015625 -0.9235351562499999c-0.01162109375 -0.13671875 -0.0232421875 -0.26865234375 -0.03759765625 -0.40195312499999997l1.2796874999999999 -1.1962890625a0.50244140625 0.50244140625 0 0 0 -0.16679687499999998 -0.83740234375l-1.640625 -0.615234375c-0.036914062500000004 -0.128515625 -0.07382812500000001 -0.25839843749999997 -0.11416015624999999 -0.38554687499999996l1.025390625 -1.42392578125a0.50244140625 0.50244140625 0 0 0 -0.32744140625 -0.7888671875l-1.7376953125 -0.28369140625c-0.0615234375 -0.11826171875 -0.12236328125 -0.23583984375 -0.18662109375 -0.35205078125l0.730078125 -1.6009765625a0.50244140625 0.50244140625 0 0 0 -0.47509765625 -0.7102539062500001l-1.7650390625 0.06220703125q-0.12236328125 -0.1517578125 -0.24677734375 -0.30078125L30.009765625 5.59453125a0.503125 0.503125 0 0 0 -0.604296875 -0.604296875L27.685546875 5.39560546875q-0.14833984375 -0.12509765625 -0.30078125 -0.24677734375l0.06220703125 -1.7650390625a0.50244140625 0.50244140625 0 0 0 -0.7102539062500001 -0.478515625L25.1357421875 3.63876953125c-0.1162109375 -0.0642578125 -0.23447265625000002 -0.12578125 -0.35205078125 -0.18662109375l-0.28369140625 -1.7376953125a0.50244140625 0.50244140625 0 0 0 -0.7888671875 -0.32744140625L22.28515625 2.4103515625c-0.12714843750000002 -0.04033203125 -0.25634765625 -0.07724609375 -0.38554687499999996 -0.11416015624999999l-0.615234375 -1.640625a0.50244140625 0.50244140625 0 0 0 -0.83740234375 -0.16679687499999998l-1.1962890625 1.2796874999999999c-0.13330078125 -0.01435546875 -0.26728515625 -0.0259765625 -0.40195312499999997 -0.03759765625L17.92724609375 0.237890625a0.50244140625 0.50244140625 0 0 0 -0.8544921875 0L16.14921875 1.7294921875c-0.13671875 0.01162109375 -0.26865234375 0.0232421875 -0.40195312499999997 0.03759765625l-1.1962890625 -1.2796874999999999a0.50244140625 0.50244140625 0 0 0 -0.83740234375 0.16679687499999998l-0.615234375 1.640625c-0.12919921874999998 0.03759765625 -0.25908203125 0.07382812500000001 -0.3869140625 0.11484375l-1.4232421875 -1.025390625a0.50244140625 0.50244140625 0 0 0 -0.7888671875 0.32744140625l-0.28369140625 1.73701171875c-0.11826171875 0.0615234375 -0.23583984375 0.12236328125 -0.352734375 0.18662109375l-1.599609375 -0.72666015625a0.50244140625 0.50244140625 0 0 0 -0.7102539062500001 0.478515625l0.062890625 1.7643554687499998c-0.10185546875 0.08134765625 -0.205078125 0.16337890625 -0.3021484375 0.24677734375L5.59453125 4.990234375A0.503125 0.503125 0 0 0 4.990234375 5.59453125L5.39560546875 7.314453125c-0.08408203125 0.09912109375 -0.16611328125000002 0.20029296875000002 -0.2474609375 0.30146484375l-1.7643554687499998 -0.06220703125a0.5072265625 0.5072265625 0 0 0 -0.43544921875000003 0.2228515625 0.50244140625 0.50244140625 0 0 0 -0.03896484375 0.48740234374999997l0.7287109375 1.60029296875c-0.0642578125 0.1162109375 -0.12509765625 0.23447265625000002 -0.18662109375 0.352734375l-1.73701171875 0.28300781249999996a0.50244140625 0.50244140625 0 0 0 -0.32744140625 0.7888671875l1.025390625 1.4232421875c-0.04033203125 0.12783203125 -0.07724609375 0.25771484375 -0.11484375 0.3869140625l-1.640625 0.615234375a0.50244140625 0.50244140625 0 0 0 -0.16679687499999998 0.83740234375l1.2796874999999999 1.1962890625c-0.01435546875 0.13330078125 -0.0259765625 0.26728515625 -0.03759765625 0.40195312499999997l-1.4943359375 0.9228515625a0.50244140625 0.50244140625 0 0 0 0 0.8544921875l1.4916015625 0.9235351562499999c0.01162109375 0.13671875 0.0232421875 0.26796875 0.03759765625 0.40126953125000003l-1.2796874999999999 1.1962890625a0.50244140625 0.50244140625 0 0 0 0.16679687499999998 0.83740234375l1.640625 0.615234375c0.03759765625 0.12919921874999998 0.07382812500000001 0.25839843749999997 0.11484375 0.38623046875l-1.025390625 1.42392578125a0.50244140625 0.50244140625 0 0 0 0.32744140625 0.7888671875l1.7376953125 0.28369140625c0.0615234375 0.11757812499999999 0.12236328125 0.23583984375 0.18662109375 0.35136718749999996l-0.72666015625 1.60166015625a0.50244140625 0.50244140625 0 0 0 0.03896484375 0.48740234374999997 0.48740234374999997 0.48740234374999997 0 0 0 0.43544921875000003 0.2228515625l1.76572265625 -0.06220703125q0.12099609375 0.1517578125 0.24609375 0.30078125L4.990234375 29.40546875a0.503125 0.503125 0 0 0 0.604296875 0.604296875l1.719921875 -0.40537109374999997q0.14902343750000002 0.12509765625 0.30146484375 0.24677734375l-0.062890625 1.7650390625a0.50244140625 0.50244140625 0 0 0 0.7102539062500001 0.47509765625l1.60166015625 -0.730078125c0.11552734375 0.0642578125 0.2337890625 0.12509765625 0.35136718749999996 0.18662109375l0.28369140625 1.7376953125a0.5017578125 0.5017578125 0 0 0 0.7888671875 0.3267578125l1.42392578125 -1.025390625c0.12714843750000002 0.041015625 0.25703125 0.07724609375 0.38623046875 0.11484375l0.615234375 1.640625a0.503125 0.503125 0 0 0 0.83740234375 0.16679687499999998l1.1962890625 -1.2796874999999999c0.13330078125 0.01435546875 0.26796875 0.0259765625 0.40195312499999997 0.03759765625l0.9235351562499999 1.4916015625a0.50244140625 0.50244140625 0 0 0 0.8544921875 0l0.9235351562499999 -1.4916015625c0.13671875 -0.01162109375 0.26865234375 -0.0232421875 0.40195312499999997 -0.03828125l1.1962890625 1.2803710937500001a0.503125 0.503125 0 0 0 0.83740234375 -0.16679687499999998l0.615234375 -1.640625c0.12919921874999998 -0.03759765625 0.25839843749999997 -0.07382812500000001 0.38623046875 -0.11484375l1.4232421875 1.025390625a0.5017578125 0.5017578125 0 0 0 0.7888671875 -0.3267578125l0.28369140625 -1.7376953125c0.11757812499999999 -0.0615234375 0.23583984375 -0.12236328125 0.35205078125 -0.18662109375l1.6009765625 0.730078125a0.50244140625 0.50244140625 0 0 0 0.7102539062500001 -0.47509765625l-0.06220703125 -1.7650390625q0.1517578125 -0.12236328125 0.30078125 -0.24677734375l1.71923828125 0.40537109374999997a0.503125 0.503125 0 0 0 0.604296875 -0.604296875L29.604394531249998 27.685546875q0.12509765625 -0.14833984375 0.24677734375 -0.30078125l1.7650390625 0.06220703125a0.49423828125 0.49423828125 0 0 0 0.43544921875000003 -0.2228515625 0.50244140625 0.50244140625 0 0 0 0.039648437499999994 -0.48740234374999997l-0.730078125 -1.6009765625c0.0642578125 -0.1162109375 0.12509765625 -0.23447265625000002 0.18662109375 -0.35205078125l1.7376953125 -0.28369140625a0.50244140625 0.50244140625 0 0 0 0.32744140625 -0.7888671875l-1.025390625 -1.42392578125c0.04033203125 -0.12783203125 0.07724609375 -0.25703125 0.11416015624999999 -0.38623046875l1.640625 -0.615234375a0.50244140625 0.50244140625 0 0 0 0.16679687499999998 -0.83740234375l-1.2796874999999999 -1.1962890625c0.01435546875 -0.13330078125 0.0259765625 -0.26728515625 0.03759765625 -0.40126953125000003l1.4916015625 -0.9235351562499999a0.50244140625 0.50244140625 0 0 0 0 -0.8544921875Zm-10.322265625 8.823828125A0.95087890625 0.95087890625 0 0 0 23.310546875 26.62666015625l-0.522265625 2.43837890625a12.818066406249999 12.818066406249999 0 0 1 -10.688671875 -0.0505859375l-0.522265625 -2.4376953125a0.94814453125 0.94814453125 0 0 0 -1.1251953125 -0.730078125l-2.1540039062500003 0.462109375a12.8091796875 12.8091796875 0 0 1 -1.1115234375 -1.31318359375H17.6572265625c0.11757812499999999 0 0.19755859375 -0.019824218749999997 0.19755859375 -0.13056640625v-3.7043945312499997c0 -0.10732421875 -0.07998046874999999 -0.13056640625 -0.19755859375 -0.13056640625h-3.06455078125l0.00341796875 -2.34814453125H17.91015625c0.30146484375 0 1.6173828125 0.08750000000000001 2.0364257812499997 1.76845703125 0.13056640625 0.51611328125 0.42177734375 2.1970703125 0.6193359375 2.734375 0.19755859375 0.6029296875 0.998046875 1.8087890625 1.8525390625 1.8087890625H27.822265625a12.8037109375 12.8037109375 0 0 1 -1.1853515625 1.37333984375Zm1.7616210937499999 2.35771484375A1.041796875 1.041796875 0 1 1 25.15625 27.2125h0.030078125a1.0411132812500001 1.0411132812500001 0 0 1 1.01171875 1.041796875Zm-15.4232421875 -0.046484375a1.041796875 1.041796875 0 1 1 -1.04248046875 -1.04248046875h0.03076171875a1.04248046875 1.04248046875 0 0 1 1.00830078125 1.04248046875Zm-6.0224609375 -12.201464843750001 2.24423828125 -0.998046875a0.948828125 0.948828125 0 0 0 0.4826171875 -1.25302734375L7.01982421875 12.71484375h1.8156249999999998v8.18466796875h-3.6640625a12.82763671875 12.82763671875 0 0 1 -0.415625 -4.8931640624999995Zm-0.7697265624999999 -2.4650390625000003a1.041796875 1.041796875 0 0 1 1.0411132812500001 -1.04248046875H5.05859375a1.041796875 1.041796875 0 1 1 -1.07119140625 1.041796875Zm10.606640624999999 1.67412109375 0.00341796875 -2.414453125h4.3244140625c0.22421875 0 1.57705078125 0.25771484375 1.57705078125 1.2728515625 0 0.84013671875 -1.03837890625 1.1416015625 -1.8921875 1.1416015625ZM27.275390625 20.966503906249997c-0.669921875 0.07724609375 -1.41025390625 -0.28164062500000003 -1.50390625 -0.68974609375 -0.3951171875 -2.22099609375 -1.05205078125 -2.693359375 -2.08974609375 -3.513671875 1.2892578125 -0.81689453125 2.6291015625000003 -2.026171875 2.6291015625000003 -3.6408203125 0 -1.7445312499999999 -1.19560546875 -2.84306640625 -2.009765625 -3.382421875 -1.145703125 -0.751953125 -2.41171875 -0.90439453125 -2.75283203125 -0.90439453125h-13.5966796875a12.816699218750001 12.816699218750001 0 0 1 7.17021484375 -4.04619140625l1.6043945312499999 1.681640625a0.9447265625 0.9447265625 0 0 0 1.33984375 0.030078125l1.7951171875 -1.708984375a12.818066406249999 12.818066406249999 0 0 1 8.77529296875 6.25009765625l-1.23046875 2.77333984375a0.95703125 0.95703125 0 0 0 0.48466796875 1.25302734375l2.36455078125 1.04794921875a12.79140625 12.79140625 0 0 1 0.02734375 2.2244140624999997h-1.3179687500000001c-0.13056640625 0 -0.18388671874999998 0.08681640625 -0.18388671874999998 0.21396484375v0.6029296875C28.779296875 20.576171875 27.98017578125 20.8892578125 27.275390625 20.966503906249997ZM16.40625 4.11591796875A1.041796875 1.041796875 0 0 1 17.44599609375 3.076171875h0.03076171875A1.041796875 1.041796875 0 1 1 16.40625 4.11591796875ZM29.862109375 14.62890625a1.041796875 1.041796875 0 1 1 0 -2.08359375h0.030078125a1.041796875 1.041796875 0 0 1 -0.030078125 2.08359375Z" fill="#000000" stroke-width="0.0684"></path>
</svg>