<svg xmlns="http://www.w3.org/2000/svg" fill="none" viewBox="0 0 30 30" id="Web3js--Streamline-Svg-Logos" height="30" width="30">
  <desc>
    Web3js Streamline Icon: https://streamlinehq.com
  </desc>
  <path fill="#808285" d="M10.10809375 6.28659375s-1.088625 0.6285000000000001 -1.088625 1.8835625l0 6.27325s0 1.2570000000000001 -1.08859375 0.6285000000000001c-1.088625 -0.6285000000000001 -1.088625 -1.8835625 -1.088625 -1.8835625l0 -6.27325c0 -0.0783125 0.00390625 -0.15465625 0.01175 -0.2290625 0.1194375 -1.10428125 1.0749062500000002 -1.6564375 1.0749062500000002 -1.6564375l-2.17528125 -1.25503125s-0.00196875 0 -0.00390625 0.0019375c-0.064625 0.03721875 -1.08471875 0.66571875 -1.08471875 1.88159375l0 6.27325s0 1.2570000000000001 -1.08859375 0.6285000000000001c-1.088628125 -0.6285000000000001 -1.088628125 -1.88353125 -1.088628125 -1.88353125l0 -6.27325c0 -1.2550625000000002 1.088628125 -1.88355 1.088628125 -1.88355l-2.1752875 -1.2570000000000001S0.3125 1.8910125 0.3125 3.1460624999999998l0 6.27325s0 3.7690312500000003 3.26390625 5.65259375c1.0005 0.57759375 1.693625 0.622625 2.17525 0.40921875 0.48165624999999995 0.7694687499999999 1.17478125 1.52521875 2.17528125 2.1028125 3.26390625 1.8835625 3.26390625 -1.88353125 3.26390625 -1.88353125l0 -6.27325c0 -1.2570000000000001 1.088625 -1.8835625 1.088625 -1.8835625 -0.334625 -0.42093749999999996 -0.6321875 -0.7067812499999999 -0.89265625 -0.8575625 -0.2220625 -0.1285625 -0.64828125 -0.2616875 -1.27871875 -0.3994375Z" stroke-width="0.3125"></path>
  <path fill="#bcbec0" d="M22.073093749999998 16.961375c0 -3.7201250000000003 3.26390625 -1.8835625 3.26390625 -1.8835625l4.3505312499999995 2.5120625000000003v2.51203125l-4.3505312499999995 -2.51203125s-0.01371875 -0.0079375 -0.0380625 -0.020218749999999997l-0.01434375 -0.00709375c-0.21725 -0.10621875 -1.03621875 -0.4341875 -1.03621875 0.6577500000000001 0 1.2550625000000002 1.088625 1.8835625 1.088625 1.8835625l2.17528125 1.25503125s2.17525 1.2570000000000001 2.17525 5.0240937500000005 -3.263875 1.88353125 -3.263875 1.88353125l-4.3505625 -2.51203125v-2.5120625000000003l4.3525 2.5120625000000003s1.088625 0.6285000000000001 1.088625 -0.6285000000000001c0 -1.2550625000000002 -1.088625 -1.8835625 -1.088625 -1.8835625l-1.08859375 -0.6285000000000001c-0.06496875 -0.0388125 -3.26390625 -1.9696875 -3.26390625 -5.6525625ZM18.8091875 11.31071875c0.65053125 0.07478125000000001 1.09153125 0.17903124999999998 1.3230312499999999 0.31281249999999994 0.25190625 0.14556249999999998 0.536 0.46028125000000003 0.85225 0.9441875 0 0 -1.08859375 0.6285000000000001 -1.08859375 1.8835625l-0.00009374999999999999 6.28315625c-0.00284375 0.21103125 -0.09784375 3.7006875 -3.2638125000000002 1.8736249999999999 -3.16596875 -1.8270312499999999 -3.26096875 -5.4281250000000005 -3.2638125000000002 -5.6425625l-0.00009374999999999999 -0.01 2.17528125 1.2570000000000001 0.0000625 0.0041875c0.0011875 0.0796875 0.036625 1.27203125 1.0885625 1.8793437499999999 1.05528125 0.60925 1.0875937500000001 -0.5533125 1.08859375 -0.6250625l0.00003125 -6.2766874999999995c0 -1.2550625000000002 1.08859375 -1.8835625 1.08859375 -1.8835625Zm-5.4371875 0.64221875 2.17525 1.25503125v2.5120625000000003l-2.17525 -1.2550625000000002v-2.51203125Z" stroke-width="0.3125"></path>
  <path fill="#f16822" d="M25.336937499999998 6.2868125c-1.00246875 -0.5795625 -1.9011875 -0.8615 -2.6667187500000002 -0.9750625 -0.19971875 -0.436625 -0.68921875 -0.94959375 -1.68384375 -1.5174062499999998 -3.26390625 -1.8639562500000002 -6.52584375 -0.0195625 -6.52584375 -0.0195625l-4.3525 2.51203125 2.17528125 1.25503125 4.3505625 -2.51203125s1.08859375 -0.6285000000000001 2.17525 0c1.088625 0.6285000000000001 0 1.2570000000000001 0 1.2570000000000001l-4.3505312499999995 2.51203125 2.17528125 1.2550625000000002 4.3544687500000006 -2.5140000000000002c0.06459375 -0.03721875 1.11796875 -0.60696875 2.17134375 0.0019375 1.088625 0.6285000000000001 0 1.2550625000000002 0 1.2550625000000002l-4.3505625 2.51203125 2.17528125 1.2570000000000001 5.4391875 -3.14053125s2.17528125 -1.2550625000000002 -1.08665625 -3.13859375Z" stroke-width="0.3125"></path>
</svg>